<svg width="41" height="41" viewBox="0 0 41 41" fill="none" xmlns="http://www.w3.org/2000/svg">
<path d="M23.2209 32.5853C23.2209 33.0402 23.0402 33.4765 22.7185 33.7982C22.3968 34.1199 21.9605 34.3006 21.5056 34.3006C21.0506 34.3006 20.6143 34.1199 20.2927 33.7982C19.971 33.4765 19.7902 33.0402 19.7902 32.5853L19.8023 22.2088L9.42583 22.2209C8.9709 22.2209 8.5346 22.0402 8.21291 21.7185C7.89123 21.3968 7.71051 20.9605 7.71051 20.5056C7.71051 20.0506 7.89123 19.6143 8.21291 19.2927C8.5346 18.971 8.9709 18.7903 9.42583 18.7903L19.8023 18.8023L19.7902 8.42583C19.7902 7.9709 19.971 7.5346 20.2927 7.21292C20.6143 6.89123 21.0506 6.71051 21.5056 6.71051C21.9605 6.71051 22.3968 6.89123 22.7185 7.21292C23.0402 7.5346 23.2209 7.9709 23.2209 8.42583L23.2088 18.8023L33.5853 18.7903C34.0402 18.7903 34.4765 18.971 34.7982 19.2927C35.1199 19.6143 35.3006 20.0506 35.3006 20.5056C35.3006 20.9605 35.1199 21.3968 34.7982 21.7185C34.4765 22.0402 34.0402 22.2209 33.5853 22.2209L23.2088 22.2088L23.2209 32.5853Z" fill="#8000FF"/>
</svg>
