<svg width="40" height="40" viewBox="0 0 40 40" fill="none" xmlns="http://www.w3.org/2000/svg">
<path d="M13.3333 6.66667C13.4795 6.80669 13.5959 6.97486 13.6754 7.16104C13.7549 7.34722 13.7958 7.54756 13.7958 7.75C13.7958 7.95244 13.7549 8.15279 13.6754 8.33897C13.5959 8.52515 13.4795 8.69332 13.3333 8.83334L9.5 12.6333C9.25629 12.8483 8.95504 12.9873 8.63333 13.0333H8.43334C8.31163 13.0492 8.18837 13.0492 8.06667 13.0333C8.00022 13.0409 7.93312 13.0409 7.86667 13.0333C7.7596 12.9846 7.65886 12.9231 7.56667 12.85L7.36667 12.7167L5.4 10.6667C5.23503 10.5328 5.1 10.3658 5.00368 10.1765C4.90736 9.98716 4.85189 9.77969 4.84087 9.56755C4.82984 9.3554 4.8635 9.1433 4.93967 8.94499C5.01585 8.74669 5.13283 8.56659 5.28304 8.41638C5.43326 8.26617 5.61335 8.14918 5.81166 8.07301C6.00997 7.99684 6.22206 7.96317 6.43421 7.9742C6.64636 7.98523 6.85382 8.0407 7.04317 8.13702C7.23251 8.23334 7.3995 8.36836 7.53334 8.53334L8.43334 9.45L11.1667 6.66667C11.3067 6.52046 11.4749 6.40411 11.661 6.32463C11.8472 6.24514 12.0476 6.20416 12.25 6.20416C12.4524 6.20416 12.6528 6.24514 12.839 6.32463C13.0251 6.40411 13.1933 6.52046 13.3333 6.66667ZM11.1667 16.6667L8.43334 19.45L7.53334 18.5333C7.24209 18.2971 6.87364 18.1771 6.49913 18.1966C6.12461 18.216 5.77058 18.3736 5.5054 18.6387C5.24022 18.9039 5.08269 19.2579 5.06323 19.6325C5.04376 20.007 5.16374 20.3754 5.4 20.6667L7.36667 22.6333L7.56667 22.7667C7.65886 22.8397 7.7596 22.9013 7.86667 22.95H8.06667C8.18837 22.9659 8.31163 22.9659 8.43334 22.95H8.63333C8.95504 22.904 9.25629 22.765 9.5 22.55L13.3333 18.8333C13.4756 18.6911 13.5885 18.5222 13.6654 18.3363C13.7424 18.1504 13.7821 17.9512 13.7821 17.75C13.7821 17.5488 13.7424 17.3496 13.6654 17.1637C13.5885 16.9778 13.4756 16.8089 13.3333 16.6667C13.1911 16.5244 13.0222 16.4116 12.8363 16.3346C12.6504 16.2576 12.4512 16.2179 12.25 16.2179C12.0488 16.2179 11.8496 16.2576 11.6637 16.3346C11.4778 16.4116 11.3089 16.5244 11.1667 16.6667ZM11.1667 26.6667L8.43334 29.45L7.53334 28.5333C7.3995 28.3684 7.23251 28.2333 7.04317 28.137C6.85382 28.0407 6.64636 27.9852 6.43421 27.9742C6.22206 27.9632 6.00997 27.9968 5.81166 28.073C5.61335 28.1492 5.43326 28.2662 5.28304 28.4164C5.13283 28.5666 5.01585 28.7467 4.93967 28.945C4.8635 29.1433 4.82984 29.3554 4.84087 29.5675C4.85189 29.7797 4.90736 29.9872 5.00368 30.1765C5.1 30.3658 5.23503 30.5328 5.4 30.6667L7.36667 32.6333L7.56667 32.7667C7.65886 32.8397 7.7596 32.9013 7.86667 32.95H8.06667C8.18837 32.9659 8.31163 32.9659 8.43334 32.95H8.63333C8.95504 32.904 9.25629 32.765 9.5 32.55L13.3333 28.8333C13.4756 28.6911 13.5885 28.5222 13.6654 28.3363C13.7424 28.1504 13.7821 27.9512 13.7821 27.75C13.7821 27.5488 13.7424 27.3496 13.6654 27.1637C13.5885 26.9778 13.4756 26.8089 13.3333 26.6667C13.1911 26.5244 13.0222 26.4116 12.8363 26.3346C12.6504 26.2576 12.4512 26.2179 12.25 26.2179C12.0488 26.2179 11.8496 26.2576 11.6637 26.3346C11.4778 26.4116 11.3089 26.5244 11.1667 26.6667ZM18.3333 11.6667H32.5C32.942 11.6667 33.366 11.4911 33.6785 11.1785C33.9911 10.866 34.1667 10.442 34.1667 10C34.1667 9.55798 33.9911 9.13405 33.6785 8.82149C33.366 8.50893 32.942 8.33334 32.5 8.33334H18.3333C17.8913 8.33334 17.4674 8.50893 17.1548 8.82149C16.8423 9.13405 16.6667 9.55798 16.6667 10C16.6667 10.442 16.8423 10.866 17.1548 11.1785C17.4674 11.4911 17.8913 11.6667 18.3333 11.6667ZM32.5 28.3333H18.3333C17.8913 28.3333 17.4674 28.5089 17.1548 28.8215C16.8423 29.1341 16.6667 29.558 16.6667 30C16.6667 30.442 16.8423 30.866 17.1548 31.1785C17.4674 31.4911 17.8913 31.6667 18.3333 31.6667H32.5C32.942 31.6667 33.366 31.4911 33.6785 31.1785C33.9911 30.866 34.1667 30.442 34.1667 30C34.1667 29.558 33.9911 29.1341 33.6785 28.8215C33.366 28.5089 32.942 28.3333 32.5 28.3333ZM32.5 18.3333H18.3333C17.8913 18.3333 17.4674 18.5089 17.1548 18.8215C16.8423 19.1341 16.6667 19.558 16.6667 20C16.6667 20.442 16.8423 20.866 17.1548 21.1785C17.4674 21.4911 17.8913 21.6667 18.3333 21.6667H32.5C32.942 21.6667 33.366 21.4911 33.6785 21.1785C33.9911 20.866 34.1667 20.442 34.1667 20C34.1667 19.558 33.9911 19.1341 33.6785 18.8215C33.366 18.5089 32.942 18.3333 32.5 18.3333Z" fill="white"/>
</svg>
